<svg width="17" height="11" viewBox="0 0 17 11" fill="none" xmlns="http://www.w3.org/2000/svg">
<path d="M15.7387 10.99L13.4387 10.99C13.1987 10.99 13.0587 10.91 12.9587 10.71L8.25866 2.44999C8.19866 2.34999 8.13866 2.32999 8.03866 2.32999L7.95866 2.32999C7.85866 2.32999 7.79866 2.34999 7.73866 2.44999L3.01866 10.71C2.91866 10.89 2.79866 10.99 2.53866 10.99L0.31866 10.99C0.03866 10.99 -0.0813408 10.75 0.0586596 10.49L5.53866 0.909988C5.91866 0.249989 6.31866 0.00998889 7.21866 0.00998897L8.85866 0.00998911C9.73866 0.00998919 10.1387 0.249989 10.5187 0.909989L15.9987 10.49C16.1387 10.75 16.0187 10.99 15.7387 10.99Z" fill="white"/>
<path d="M0.0573196 4.01001H16.0573" stroke="white"/>
<path d="M0.0573196 7.01001H16.0573" stroke="white"/>
</svg>
