<svg width="20" height="21" viewBox="0 0 20 21" fill="none" xmlns="http://www.w3.org/2000/svg">
<path d="M10.0001 18.8334C14.6024 18.8334 18.3334 15.1024 18.3334 10.5001C18.3334 5.89771 14.6024 2.16675 10.0001 2.16675C5.39771 2.16675 1.66675 5.89771 1.66675 10.5001C1.66675 15.1024 5.39771 18.8334 10.0001 18.8334Z" stroke="#FA00FF" stroke-width="1.5"/>
<path d="M10.0066 9.25684C9.31626 9.25684 8.75659 9.8165 8.75659 10.5068C8.75659 11.1972 9.31626 11.7568 10.0066 11.7568C10.6969 11.7568 11.2566 11.1972 11.2566 10.5068C11.2566 9.8165 10.6969 9.25684 10.0066 9.25684ZM10.0066 9.25684V6.33252M12.5123 13.0165L10.8885 11.3927" stroke="#FA00FF" stroke-width="1.5" stroke-linecap="round" stroke-linejoin="round"/>
</svg>
