<svg width="506" height="506" viewBox="0 0 506 506" fill="none" xmlns="http://www.w3.org/2000/svg">
<g opacity="0.85">
<rect x="279" y="172" width="143" height="81" fill="#FF00FF"/>
<rect x="293" y="247" width="143" height="81" fill="#00FFFF"/>
<path d="M142.094 68.4812L142.094 68.4812C152.307 65.8794 162.696 72.0499 165.298 82.2631C167.899 92.4764 161.729 102.865 151.516 105.467L110.132 116.008C99.9188 118.61 89.5304 112.439 86.9288 102.226L84.9907 102.72L86.9288 102.226C84.327 92.0129 90.4975 81.6245 100.711 79.0228L142.094 68.4812ZM339.908 82.3456L339.908 82.3452C342.463 72.1209 352.825 65.9041 363.05 68.4604L405.217 79.002C415.442 81.5582 421.657 91.919 419.102 102.144C416.545 112.369 406.184 118.585 395.96 116.029L353.793 105.487C343.568 102.931 337.351 92.5702 339.908 82.3456Z" fill="url(#paint0_linear_53_3317)" stroke="#C6C6C6" stroke-width="4"/>
<path d="M405.598 434.371L405.597 434.371C396.453 438.979 387.07 439.179 378.486 435.815C370.519 432.691 364.12 426.862 359.108 420.91C349.143 409.073 341.284 392.588 335.58 379.733C331.591 370.739 322.886 365.074 312.63 365.074H193.38C183.125 365.074 174.419 370.739 170.43 379.733C164.726 392.588 156.867 409.073 146.901 420.91C141.889 426.862 135.491 432.691 127.524 435.815C118.94 439.179 109.557 438.979 100.412 434.371L100.411 434.371C65.0553 416.562 25.1387 388.697 28.5606 335.066C33.3383 260.189 47.4258 204.948 59.6688 172.258L57.7958 171.557L59.6688 172.258C67.1048 152.403 83.3149 137.24 104.312 132.16C197.105 109.711 308.904 109.711 401.697 132.16C422.694 137.24 438.904 152.403 446.34 172.258C458.584 204.948 472.671 260.189 477.45 335.066C480.846 388.3 441.379 416.348 405.598 434.371ZM206.073 197.146L206.073 197.146C197.058 188.132 182.443 188.132 173.428 197.146L174.842 198.561L173.428 197.146L158.125 212.449L142.823 197.146L141.409 198.561L142.823 197.146C133.808 188.132 119.193 188.132 110.178 197.146L111.592 198.561L110.178 197.146C101.163 206.161 101.163 220.777 110.178 229.791L125.481 245.094L110.178 260.397C101.163 269.411 101.163 284.027 110.178 293.041L111.592 291.627L110.178 293.041C119.193 302.055 133.808 302.055 142.823 293.041L141.409 291.627L142.823 293.041L158.125 277.738L173.428 293.041L174.842 291.627L173.428 293.041C182.443 302.055 197.058 302.055 206.073 293.041L204.659 291.627L206.073 293.041C215.087 284.027 215.087 269.411 206.073 260.397L190.77 245.094L206.073 229.791C215.087 220.777 215.087 206.161 206.073 197.146ZM337.087 236.552H337.277C350.023 236.552 360.36 226.218 360.36 213.469C360.36 200.72 350.023 190.386 337.277 190.386H337.087C324.338 190.386 314.004 200.72 314.004 213.469C314.004 226.218 324.338 236.552 337.087 236.552ZM379.254 253.636C366.505 253.636 356.17 263.97 356.17 276.719C356.17 289.468 366.505 299.802 379.254 299.802H379.443C392.19 299.802 402.527 289.468 402.527 276.719C402.527 263.97 392.19 253.636 379.443 253.636H379.254Z" fill="url(#paint1_linear_53_3317)" stroke="#C6C6C6" stroke-width="4"/>
</g>
<defs>
<linearGradient id="paint0_linear_53_3317" x1="83.7296" y1="92.5006" x2="527.888" y2="92.5006" gradientUnits="userSpaceOnUse">
<stop stop-color="#0000FF"/>
<stop offset="1" stop-color="#FF00FF"/>
</linearGradient>
<linearGradient id="paint1_linear_53_3317" x1="25.5435" y1="278.305" x2="622.376" y2="278.305" gradientUnits="userSpaceOnUse">
<stop stop-color="#0000FF"/>
<stop offset="1" stop-color="#FF00FF"/>
</linearGradient>
</defs>
</svg>
