<svg width="1440" height="86" viewBox="0 0 1440 86" fill="none" xmlns="http://www.w3.org/2000/svg">
<path opacity="0.45" d="M1485 -39H-23.3263C-36.6625 -18.4852 -58.1338 30.2194 -37.3293 60.9192C-11.3237 99.294 73.6947 83.3648 81.6964 79.0205C89.6982 74.6762 247.732 29.785 327.75 44.99C407.767 60.1951 424.771 38.4736 452.777 29.785C475.182 22.8341 542.129 14.3385 572.803 10.9596C624.147 8.30474 736.838 6.03604 776.847 18.2001C826.858 33.4052 888.871 2.99502 929.88 -5.6936C970.889 -14.3822 1031.9 -5.6936 1076.91 2.99502C1121.92 11.6837 1100.92 -5.6936 1142.93 -5.6936C1184.94 -5.6936 1189.94 27.6128 1227.94 13.1318C1265.95 -1.34929 1280.96 4.44313 1294.96 2.99502C1306.16 1.83654 1304.96 -10.0379 1302.96 -15.8303C1310.3 -12.4514 1332.17 -5.6936 1360.97 -5.6936C1389.78 -5.6936 1423.65 -12.4514 1436.99 -15.8303L1485 -5.6936V-39Z" fill="url(#paint0_linear_106_6276)"/>
<defs>
<linearGradient id="paint0_linear_106_6276" x1="2.00001" y1="23.4999" x2="1450.66" y2="-35.9651" gradientUnits="userSpaceOnUse">
<stop stop-color="#E98100"/>
<stop offset="0.140625" stop-color="#F9E680"/>
<stop offset="0.291667" stop-color="#E98100"/>
<stop offset="0.447917" stop-color="#F9E680"/>
<stop offset="0.588542" stop-color="#E98100"/>
<stop offset="0.723958" stop-color="#F9E680"/>
<stop offset="0.864583" stop-color="#E98100"/>
<stop offset="1" stop-color="#F9E680"/>
</linearGradient>
</defs>
</svg>
