<svg width="24" height="25" viewBox="0 0 24 25" fill="none" xmlns="http://www.w3.org/2000/svg">
<path fill-rule="evenodd" clip-rule="evenodd" d="M3.02795 6.57969C2.99979 6.41212 3.01996 6.38708 3.18807 6.37615C3.43675 6.35998 3.68655 6.36119 3.93596 6.3624C4.00171 6.36272 4.06744 6.36304 4.13311 6.36304C4.30032 6.36304 4.30854 6.36934 4.33363 6.53833C4.83817 9.93629 7.56916 12.6088 10.9991 13.0491V17.7162C9.4475 18.0424 8.16135 19.1119 7.44694 20.5301C6.84922 21.7167 7.68639 23.1126 8.95787 23.1126H15.0403C16.3118 23.1126 17.149 21.7167 16.5512 20.5301C15.8368 19.1119 14.5507 18.0424 12.9991 17.7162V13.0493C16.4299 12.6097 19.1617 9.93688 19.6663 6.53833C19.6914 6.36934 19.6996 6.36304 19.8668 6.36304C19.9325 6.36304 19.9982 6.36272 20.064 6.3624C20.3134 6.36119 20.5632 6.35998 20.8119 6.37615C20.99 6.38773 20.9926 6.46093 20.9645 6.62308C20.9395 6.76319 20.9047 6.9257 20.8589 7.13827C20.5541 8.55309 19.8974 9.77405 19.0326 10.6676C18.6484 11.0644 18.6587 11.6975 19.0556 12.0816C19.4524 12.4657 20.0855 12.4554 20.4696 12.0586C21.6116 10.8789 22.4359 9.31471 22.814 7.55941C22.8217 7.52381 22.8295 7.48817 22.8372 7.45249C22.9131 7.10409 22.9898 6.75199 22.9991 6.39493C23.0106 5.95326 22.9078 5.50648 22.5721 5.09834C22.2159 4.66519 21.7583 4.49302 21.3238 4.42233C20.9576 4.36276 20.5162 4.36289 20.0773 4.36303H19.8832C19.7122 4.36304 19.7041 4.35704 19.6811 4.18247C19.6589 4.01365 19.6274 3.84827 19.5809 3.68876C19.4407 3.20764 19.1802 2.81423 18.7584 2.42853C17.8633 1.61006 16.827 1.6112 15.4964 1.61267H8.50356C7.17295 1.6112 6.13669 1.61006 5.24159 2.42853C4.81978 2.81423 4.55923 3.20764 4.41906 3.68876C4.37259 3.84827 4.3411 4.01365 4.31886 4.18247C4.29586 4.35706 4.28778 4.36304 4.11673 4.36303H3.92268C3.48372 4.36289 3.04239 4.36276 2.6762 4.42233C2.24163 4.49302 1.78409 4.66519 1.42782 5.09834C1.09213 5.50648 0.989379 5.95326 1.00085 6.39493C1.00993 6.74445 1.09487 7.13775 1.17296 7.49935C1.53905 9.19591 2.31675 10.8049 3.53037 12.0586C3.91449 12.4554 4.54757 12.4657 4.94439 12.0816C5.34122 11.6975 5.35151 11.0644 4.96739 10.6676C3.88773 9.55216 3.28986 8.09157 3.02795 6.57969Z" fill="url(#paint0_linear_780_7618)"/>
<defs>
<linearGradient id="paint0_linear_780_7618" x1="23.1189" y1="12.2838" x2="-5.40327" y2="14.6799" gradientUnits="userSpaceOnUse">
<stop stop-color="#FFF300"/>
<stop offset="0.203125" stop-color="#AB701B"/>
<stop offset="0.552083" stop-color="#FFF300"/>
<stop offset="1" stop-color="#AD731A"/>
</linearGradient>
</defs>
</svg>
