<svg width="1057" height="25" viewBox="0 0 1057 25" fill="none" xmlns="http://www.w3.org/2000/svg">
<path d="M0.649123 23.8235L17.7054 0.330882H44.3864L28.9392 23.8235H0.649123Z" stroke="white" stroke-width="0.661765"/>
<path d="M46.6491 23.8235L63.7054 0.330882H90.3864L74.9392 23.8235H46.6491Z" stroke="white" stroke-width="0.661765"/>
<path d="M92.6491 23.8235L109.705 0.330882H136.386L120.939 23.8235H92.6491Z" stroke="white" stroke-width="0.661765"/>
<path d="M138.649 23.8235L155.705 0.330882H182.386L166.939 23.8235H138.649Z" stroke="white" stroke-width="0.661765"/>
<path d="M184.649 23.8235L201.705 0.330882H228.386L212.939 23.8235H184.649Z" stroke="white" stroke-width="0.661765"/>
<path d="M230.649 23.8235L247.705 0.330882H274.386L258.939 23.8235H230.649Z" stroke="white" stroke-width="0.661765"/>
<path d="M276.649 23.8235L293.705 0.330882H320.386L304.939 23.8235H276.649Z" stroke="white" stroke-width="0.661765"/>
<path d="M322.649 23.8235L339.705 0.330882H366.386L350.939 23.8235H322.649Z" stroke="white" stroke-width="0.661765"/>
<path d="M368.649 23.8235L385.705 0.330882H412.386L396.939 23.8235H368.649Z" stroke="white" stroke-width="0.661765"/>
<path d="M414.649 23.8235L431.705 0.330882H458.386L442.939 23.8235H414.649Z" stroke="white" stroke-width="0.661765"/>
<path d="M460.649 23.8235L477.705 0.330882H504.386L488.939 23.8235H460.649Z" stroke="white" stroke-width="0.661765"/>
<path d="M506.649 23.8235L523.705 0.330882H550.386L534.939 23.8235H506.649Z" stroke="white" stroke-width="0.661765"/>
<path d="M552.649 23.8235L569.705 0.330882H596.386L580.939 23.8235H552.649Z" stroke="white" stroke-width="0.661765"/>
<path d="M598.649 23.8235L615.705 0.330882H642.386L626.939 23.8235H598.649Z" stroke="white" stroke-width="0.661765"/>
<path d="M644.649 23.8235L661.705 0.330882H688.386L672.939 23.8235H644.649Z" stroke="white" stroke-width="0.661765"/>
<path d="M690.649 23.8235L707.705 0.330882H734.386L718.939 23.8235H690.649Z" stroke="white" stroke-width="0.661765"/>
<path d="M736.649 23.8235L753.705 0.330882H780.386L764.939 23.8235H736.649Z" stroke="white" stroke-width="0.661765"/>
<path d="M782.649 23.8235L799.705 0.330882H826.386L810.939 23.8235H782.649Z" stroke="white" stroke-width="0.661765"/>
<path d="M828.649 23.8235L845.705 0.330882H872.386L856.939 23.8235H828.649Z" stroke="white" stroke-width="0.661765"/>
<path d="M874.649 23.8235L891.705 0.330882H918.386L902.939 23.8235H874.649Z" stroke="white" stroke-width="0.661765"/>
<path d="M920.649 23.8235L937.705 0.330882H964.386L948.939 23.8235H920.649Z" stroke="white" stroke-width="0.661765"/>
<path d="M966.649 23.8235L983.705 0.330882H1010.39L994.939 23.8235H966.649Z" stroke="white" stroke-width="0.661765"/>
<path d="M1012.65 23.8235L1029.71 0.330882H1056.39L1040.94 23.8235H1012.65Z" stroke="white" stroke-width="0.661765"/>
</svg>
