<svg width="24" height="24" viewBox="0 0 24 24" fill="none" xmlns="http://www.w3.org/2000/svg">
<path d="M0.749719 1.24465C0.94419 0.864319 1.33534 0.625 1.7625 0.625H7.45C7.81526 0.625 8.1583 0.800397 8.37215 1.09651L13.7913 8.59999L21.4332 0.958165C21.8774 0.513945 22.5977 0.513945 23.0418 0.958165C23.4861 1.40239 23.4861 2.12261 23.0418 2.56683L15.1406 10.4682L23.1596 21.5714C23.4098 21.9178 23.4448 22.3751 23.2503 22.7554C23.0558 23.1357 22.6646 23.375 22.2375 23.375H16.55C16.1847 23.375 15.8417 23.1996 15.6279 22.9035L10.2087 15.4L2.56684 23.0418C2.12262 23.4861 1.4024 23.4861 0.958167 23.0418C0.513947 22.5976 0.513947 21.8773 0.958167 21.4332L8.85946 13.5318L0.840357 2.42849C0.590259 2.0822 0.555247 1.62499 0.749719 1.24465Z" fill="white"/>
</svg>
