<svg width="210" height="194" viewBox="0 0 210 194" fill="none" xmlns="http://www.w3.org/2000/svg">
<path d="M202.738 113.691L45.6642 161.807C45.6642 161.807 28.442 111.149 43.3775 59.8727L202.642 98.2936L202.738 113.691Z" fill="#0000FF" stroke="#0000FF" stroke-width="2.1311" stroke-miterlimit="10"/>
<path d="M50.7166 154.362L111.746 134.334C118.301 132.19 121.69 125.017 118.909 119.207L104.048 88.1525C103.249 86.5013 102.102 85.043 100.684 83.8786C99.2673 82.7141 97.6142 81.8712 95.8394 81.408L54.9841 70.3153C54.9841 70.3153 37.7707 107.502 50.7166 154.362Z" fill="#00CCCC"/>
<path d="M194.681 100.872L119.911 83.8332C119.911 83.8332 125.012 110.598 134.634 121.268C135.96 122.666 137.656 123.658 139.525 124.128C141.394 124.597 143.358 124.525 145.187 123.919L195.841 107.059L194.681 100.872Z" fill="#00CCCC"/>
</svg>
