<svg width="194" height="210" viewBox="0 0 194 210" fill="none" xmlns="http://www.w3.org/2000/svg">
<path d="M114.016 7.56338L161.588 164.804C161.588 164.804 110.869 181.864 59.6447 166.735L98.6336 7.60195L114.016 7.56338Z" fill="#FFF300" stroke="#FFF300" stroke-width="2.1311" stroke-miterlimit="10"/>
<path d="M151.291 151.374L135.877 92.7661C135.388 91.2311 134.575 89.8189 133.494 88.6246C132.413 87.4304 131.088 86.4818 129.609 85.8431C128.13 85.2043 126.532 84.8901 124.921 84.9217C123.31 84.9534 121.725 85.33 120.272 86.0263L87.988 102.139C86.2899 102.988 84.7882 104.183 83.5792 105.646C82.3703 107.11 81.4809 108.81 80.9682 110.638L69.2253 152.328C69.2253 152.328 102.635 166.095 151.291 151.374Z" fill="#EA8200"/>
<path d="M102.573 11.1844L84.2892 87.4924C84.2892 87.4924 111.899 80.132 123 70.0644C124.445 68.7206 125.477 66.9931 125.975 65.084C126.474 63.175 126.419 61.1633 125.815 59.2847L108.652 9.92209L102.573 11.1844Z" fill="#EA8200"/>
</svg>
