<svg width="212" height="197" viewBox="0 0 212 197" fill="none" xmlns="http://www.w3.org/2000/svg">
<path d="M139.194 191.936L19.5996 79.4143C19.5996 79.4143 58.0672 38.2176 110.08 26.0696L154.78 183.693L139.194 191.936Z" fill="#FFF300" stroke="#FFF300" stroke-width="2.1311" stroke-miterlimit="10"/>
<path d="M30.3305 78.0472L77.477 121.951C78.6729 123.049 80.09 123.877 81.6329 124.381C83.1759 124.885 84.8089 125.053 86.422 124.873C88.0352 124.693 89.591 124.17 90.985 123.338C92.3789 122.506 93.5785 121.386 94.5032 120.052L115.433 89.4823C116.528 87.883 117.283 86.0767 117.654 84.1746C118.024 82.2725 118.001 80.3147 117.587 78.4217L108.131 35.5259C108.131 35.5259 66.4379 40.5406 30.3305 78.0472Z" fill="#EA8200"/>
<path d="M147.194 178.164L126.917 101.444C126.917 101.444 105.202 120.815 100.18 135.338C99.5364 137.227 99.4434 139.261 99.9118 141.202C100.38 143.142 101.391 144.91 102.826 146.298L142.166 182.611L147.194 178.164Z" fill="#EB8200"/>
</svg>
