<svg width="209" height="195" viewBox="0 0 209 195" fill="none" xmlns="http://www.w3.org/2000/svg">
<path d="M7.03233 80.3661L164.441 33.37C164.441 33.37 181.313 84.1313 166.009 135.309L7.01455 95.7645L7.03233 80.3661Z" fill="#FF00FF" stroke="#FF00FF" stroke-width="2.1311" stroke-miterlimit="10"/>
<path d="M157.047 40.0834L95.3478 58.6112C93.7932 59.0862 92.3586 59.8891 91.1407 60.9658C89.9229 62.0424 88.9501 63.3678 88.2881 64.8524C87.6262 66.337 87.2903 67.9464 87.3033 69.5718C87.3163 71.1973 87.6778 72.8011 88.3634 74.275L104.127 107.745C104.956 109.499 106.134 111.064 107.59 112.345C109.047 113.626 110.75 114.595 112.595 115.193L154.396 128.693C154.396 128.693 171.193 90.1873 157.047 40.0834Z" fill="#801FEF"/>
<path d="M11.6181 90.3833L88.0908 111.623C88.0908 111.623 82.337 83.1024 72.3658 71.4862C71.0629 69.9747 69.3563 68.8658 67.4458 68.2894C65.5354 67.7131 63.5002 67.6931 61.5788 68.2318L10.3537 83.8458L11.6181 90.3833Z" fill="#8002FC"/>
</svg>
