<svg width="1114" height="640" viewBox="0 0 1114 640" fill="none" xmlns="http://www.w3.org/2000/svg">
<path d="M710 137.565V168.565C743.2 138.565 782.167 156.065 797.5 168.565V137.565C752.7 107.565 720.5 125.065 710 137.565Z" fill="url(#paint0_linear_470_1719)"/>
<path d="M714.5 606.359L710 576.859C718.833 581.359 740.9 587.659 758.5 576.859C772.9 568.059 789.5 573.192 796 576.859L802.5 606.359C793 601.859 770.9 595.559 758.5 606.359C740.1 620.759 721.5 612.359 714.5 606.359Z" fill="url(#paint1_linear_470_1719)"/>
<path d="M68.7475 386L54.7475 355C-16.4526 391 -3.25257 435.333 12.2475 453C10.6475 413.4 49.2475 391.833 68.7475 386Z" fill="url(#paint2_linear_470_1719)"/>
<path d="M245.37 541.697L270.81 531.459C274.84 583.698 241.076 601.486 223.69 603.85C249.937 583.26 249.079 553.835 245.37 541.697Z" fill="url(#paint3_linear_470_1719)"/>
<path d="M75.4237 76.1504L86.2541 55.9807C89.5997 62.8107 100.234 76.8417 116.006 78.3251C128.894 79.561 136.712 90.3578 139.01 95.6017L129.406 116.693C125.652 109.556 114.997 95.5092 102.415 96.4216C84.4935 96.7781 76.9535 83.056 75.4237 76.1504Z" fill="url(#paint4_linear_470_1719)"/>
<path d="M1018.82 486.544L1016 468.047C1021.54 470.868 1035.38 474.819 1046.41 468.047C1055.44 462.529 1065.85 465.748 1069.92 468.047L1074 486.544C1068.04 483.722 1054.19 479.772 1046.41 486.544C1034.87 495.573 1023.21 490.306 1018.82 486.544Z" fill="url(#paint5_linear_470_1719)"/>
<circle cx="91" cy="266" r="8" fill="url(#paint6_linear_470_1719)"/>
<circle cx="485" cy="8" r="8" fill="url(#paint7_linear_470_1719)"/>
<circle cx="933" cy="292" r="8" fill="url(#paint8_linear_470_1719)"/>
<circle cx="933" cy="527" r="8" fill="url(#paint9_linear_470_1719)"/>
<circle cx="441" cy="632" r="8" fill="url(#paint10_linear_470_1719)"/>
<circle cx="25" cy="624" r="8" fill="url(#paint11_linear_470_1719)"/>
<circle cx="21.5" cy="523.5" r="4.5" fill="url(#paint12_linear_470_1719)"/>
<circle cx="144.5" cy="460.5" r="4.5" fill="url(#paint13_linear_470_1719)"/>
<circle cx="188.5" cy="614.5" r="4.5" fill="url(#paint14_linear_470_1719)"/>
<circle cx="291.5" cy="597.5" r="4.5" fill="url(#paint15_linear_470_1719)"/>
<circle cx="169.5" cy="247.5" r="4.5" fill="url(#paint16_linear_470_1719)"/>
<circle cx="197.5" cy="149.5" r="4.5" fill="url(#paint17_linear_470_1719)"/>
<circle cx="269.5" cy="48.5" r="4.5" fill="url(#paint18_linear_470_1719)"/>
<circle cx="682.5" cy="60.5" r="4.5" fill="url(#paint19_linear_470_1719)"/>
<circle cx="709.5" cy="35.5" r="4.5" fill="url(#paint20_linear_470_1719)"/>
<circle cx="851.5" cy="267.5" r="4.5" fill="url(#paint21_linear_470_1719)"/>
<circle cx="939.5" cy="147.5" r="4.5" fill="url(#paint22_linear_470_1719)"/>
<circle cx="1109.5" cy="347.5" r="4.5" fill="url(#paint23_linear_470_1719)"/>
<circle cx="892.5" cy="453.5" r="4.5" fill="url(#paint24_linear_470_1719)"/>
<circle cx="568.5" cy="516.5" r="4.5" fill="url(#paint25_linear_470_1719)"/>
<defs>
<linearGradient id="paint0_linear_470_1719" x1="797.973" y1="144.608" x2="686.279" y2="161.477" gradientUnits="userSpaceOnUse">
<stop stop-color="#FFF300"/>
<stop offset="0.203125" stop-color="#AB701B"/>
<stop offset="0.552083" stop-color="#FFF300"/>
<stop offset="1" stop-color="#AD731A"/>
</linearGradient>
<linearGradient id="paint1_linear_470_1719" x1="803" y1="593" x2="686" y2="614" gradientUnits="userSpaceOnUse">
<stop stop-color="#FFF300"/>
<stop offset="0.203125" stop-color="#AB701B"/>
<stop offset="0.552083" stop-color="#FFF300"/>
<stop offset="1" stop-color="#AD731A"/>
</linearGradient>
<linearGradient id="paint2_linear_470_1719" x1="69.1191" y1="403.641" x2="-20.3418" y2="408.793" gradientUnits="userSpaceOnUse">
<stop stop-color="#FFF300"/>
<stop offset="0.203125" stop-color="#AB701B"/>
<stop offset="0.552083" stop-color="#FFF300"/>
<stop offset="1" stop-color="#AD731A"/>
</linearGradient>
<linearGradient id="paint3_linear_470_1719" x1="233.808" y1="551.027" x2="266.51" y2="593.78" gradientUnits="userSpaceOnUse">
<stop stop-color="#FFF300"/>
<stop offset="0.203125" stop-color="#AB701B"/>
<stop offset="0.552083" stop-color="#FFF300"/>
<stop offset="1" stop-color="#AD731A"/>
</linearGradient>
<linearGradient id="paint4_linear_470_1719" x1="135.868" y1="108.728" x2="54.4203" y2="67.7075" gradientUnits="userSpaceOnUse">
<stop stop-color="#FFF300"/>
<stop offset="0.203125" stop-color="#AB701B"/>
<stop offset="0.552083" stop-color="#FFF300"/>
<stop offset="1" stop-color="#AD731A"/>
</linearGradient>
<linearGradient id="paint5_linear_470_1719" x1="1074.31" y1="478.168" x2="1000.95" y2="491.335" gradientUnits="userSpaceOnUse">
<stop stop-color="#FFF300"/>
<stop offset="0.203125" stop-color="#AB701B"/>
<stop offset="0.552083" stop-color="#FFF300"/>
<stop offset="1" stop-color="#AD731A"/>
</linearGradient>
<linearGradient id="paint6_linear_470_1719" x1="99.0865" y1="265.941" x2="78.3365" y2="267.645" gradientUnits="userSpaceOnUse">
<stop stop-color="#FFF300"/>
<stop offset="0.203125" stop-color="#AB701B"/>
<stop offset="0.552083" stop-color="#FFF300"/>
<stop offset="1" stop-color="#AD731A"/>
</linearGradient>
<linearGradient id="paint7_linear_470_1719" x1="493.086" y1="7.9414" x2="472.337" y2="9.64494" gradientUnits="userSpaceOnUse">
<stop stop-color="#FFF300"/>
<stop offset="0.203125" stop-color="#AB701B"/>
<stop offset="0.552083" stop-color="#FFF300"/>
<stop offset="1" stop-color="#AD731A"/>
</linearGradient>
<linearGradient id="paint8_linear_470_1719" x1="941.086" y1="291.941" x2="920.337" y2="293.645" gradientUnits="userSpaceOnUse">
<stop stop-color="#FFF300"/>
<stop offset="0.203125" stop-color="#AB701B"/>
<stop offset="0.552083" stop-color="#FFF300"/>
<stop offset="1" stop-color="#AD731A"/>
</linearGradient>
<linearGradient id="paint9_linear_470_1719" x1="941.086" y1="526.941" x2="920.337" y2="528.645" gradientUnits="userSpaceOnUse">
<stop stop-color="#FFF300"/>
<stop offset="0.203125" stop-color="#AB701B"/>
<stop offset="0.552083" stop-color="#FFF300"/>
<stop offset="1" stop-color="#AD731A"/>
</linearGradient>
<linearGradient id="paint10_linear_470_1719" x1="449.086" y1="631.941" x2="428.337" y2="633.645" gradientUnits="userSpaceOnUse">
<stop stop-color="#FFF300"/>
<stop offset="0.203125" stop-color="#AB701B"/>
<stop offset="0.552083" stop-color="#FFF300"/>
<stop offset="1" stop-color="#AD731A"/>
</linearGradient>
<linearGradient id="paint11_linear_470_1719" x1="33.0865" y1="623.941" x2="12.3365" y2="625.645" gradientUnits="userSpaceOnUse">
<stop stop-color="#FFF300"/>
<stop offset="0.203125" stop-color="#AB701B"/>
<stop offset="0.552083" stop-color="#FFF300"/>
<stop offset="1" stop-color="#AD731A"/>
</linearGradient>
<linearGradient id="paint12_linear_470_1719" x1="26.0486" y1="523.467" x2="14.3768" y2="524.425" gradientUnits="userSpaceOnUse">
<stop stop-color="#FFF300"/>
<stop offset="0.203125" stop-color="#AB701B"/>
<stop offset="0.552083" stop-color="#FFF300"/>
<stop offset="1" stop-color="#AD731A"/>
</linearGradient>
<linearGradient id="paint13_linear_470_1719" x1="149.049" y1="460.467" x2="137.377" y2="461.425" gradientUnits="userSpaceOnUse">
<stop stop-color="#FFF300"/>
<stop offset="0.203125" stop-color="#AB701B"/>
<stop offset="0.552083" stop-color="#FFF300"/>
<stop offset="1" stop-color="#AD731A"/>
</linearGradient>
<linearGradient id="paint14_linear_470_1719" x1="193.049" y1="614.467" x2="181.377" y2="615.425" gradientUnits="userSpaceOnUse">
<stop stop-color="#FFF300"/>
<stop offset="0.203125" stop-color="#AB701B"/>
<stop offset="0.552083" stop-color="#FFF300"/>
<stop offset="1" stop-color="#AD731A"/>
</linearGradient>
<linearGradient id="paint15_linear_470_1719" x1="296.049" y1="597.467" x2="284.377" y2="598.425" gradientUnits="userSpaceOnUse">
<stop stop-color="#FFF300"/>
<stop offset="0.203125" stop-color="#AB701B"/>
<stop offset="0.552083" stop-color="#FFF300"/>
<stop offset="1" stop-color="#AD731A"/>
</linearGradient>
<linearGradient id="paint16_linear_470_1719" x1="174.049" y1="247.467" x2="162.377" y2="248.425" gradientUnits="userSpaceOnUse">
<stop stop-color="#FFF300"/>
<stop offset="0.203125" stop-color="#AB701B"/>
<stop offset="0.552083" stop-color="#FFF300"/>
<stop offset="1" stop-color="#AD731A"/>
</linearGradient>
<linearGradient id="paint17_linear_470_1719" x1="202.049" y1="149.467" x2="190.377" y2="150.425" gradientUnits="userSpaceOnUse">
<stop stop-color="#FFF300"/>
<stop offset="0.203125" stop-color="#AB701B"/>
<stop offset="0.552083" stop-color="#FFF300"/>
<stop offset="1" stop-color="#AD731A"/>
</linearGradient>
<linearGradient id="paint18_linear_470_1719" x1="274.049" y1="48.467" x2="262.377" y2="49.4253" gradientUnits="userSpaceOnUse">
<stop stop-color="#FFF300"/>
<stop offset="0.203125" stop-color="#AB701B"/>
<stop offset="0.552083" stop-color="#FFF300"/>
<stop offset="1" stop-color="#AD731A"/>
</linearGradient>
<linearGradient id="paint19_linear_470_1719" x1="687.049" y1="60.467" x2="675.377" y2="61.4253" gradientUnits="userSpaceOnUse">
<stop stop-color="#FFF300"/>
<stop offset="0.203125" stop-color="#AB701B"/>
<stop offset="0.552083" stop-color="#FFF300"/>
<stop offset="1" stop-color="#AD731A"/>
</linearGradient>
<linearGradient id="paint20_linear_470_1719" x1="714.049" y1="35.467" x2="702.377" y2="36.4253" gradientUnits="userSpaceOnUse">
<stop stop-color="#FFF300"/>
<stop offset="0.203125" stop-color="#AB701B"/>
<stop offset="0.552083" stop-color="#FFF300"/>
<stop offset="1" stop-color="#AD731A"/>
</linearGradient>
<linearGradient id="paint21_linear_470_1719" x1="856.049" y1="267.467" x2="844.377" y2="268.425" gradientUnits="userSpaceOnUse">
<stop stop-color="#FFF300"/>
<stop offset="0.203125" stop-color="#AB701B"/>
<stop offset="0.552083" stop-color="#FFF300"/>
<stop offset="1" stop-color="#AD731A"/>
</linearGradient>
<linearGradient id="paint22_linear_470_1719" x1="944.049" y1="147.467" x2="932.377" y2="148.425" gradientUnits="userSpaceOnUse">
<stop stop-color="#FFF300"/>
<stop offset="0.203125" stop-color="#AB701B"/>
<stop offset="0.552083" stop-color="#FFF300"/>
<stop offset="1" stop-color="#AD731A"/>
</linearGradient>
<linearGradient id="paint23_linear_470_1719" x1="1114.05" y1="347.467" x2="1102.38" y2="348.425" gradientUnits="userSpaceOnUse">
<stop stop-color="#FFF300"/>
<stop offset="0.203125" stop-color="#AB701B"/>
<stop offset="0.552083" stop-color="#FFF300"/>
<stop offset="1" stop-color="#AD731A"/>
</linearGradient>
<linearGradient id="paint24_linear_470_1719" x1="897.049" y1="453.467" x2="885.377" y2="454.425" gradientUnits="userSpaceOnUse">
<stop stop-color="#FFF300"/>
<stop offset="0.203125" stop-color="#AB701B"/>
<stop offset="0.552083" stop-color="#FFF300"/>
<stop offset="1" stop-color="#AD731A"/>
</linearGradient>
<linearGradient id="paint25_linear_470_1719" x1="573.049" y1="516.467" x2="561.377" y2="517.425" gradientUnits="userSpaceOnUse">
<stop stop-color="#FFF300"/>
<stop offset="0.203125" stop-color="#AB701B"/>
<stop offset="0.552083" stop-color="#FFF300"/>
<stop offset="1" stop-color="#AD731A"/>
</linearGradient>
</defs>
</svg>
